<?xml version="1.0" encoding="UTF-8"?>
<svg version="1.1" xmlns="http://www.w3.org/2000/svg" width="924" height="637">
<path d="M0 0 C1.50725178 -0.00406975 3.01450058 -0.00941389 4.52174377 -0.01593018 C8.60766296 -0.02958283 12.69335426 -0.02430803 16.77927732 -0.01479292 C21.08240053 -0.00716058 25.38550512 -0.01425413 29.68862915 -0.01895142 C36.93324241 -0.02440917 44.17776397 -0.0172279 51.42236328 -0.00292969 C59.73304057 0.01328592 68.04349574 0.00818991 76.35416734 -0.0084089 C83.53087965 -0.02215703 90.70752616 -0.02387602 97.88424742 -0.0160929 C102.151164 -0.01147428 106.41797746 -0.01062497 110.68488693 -0.02070236 C149.76255973 -0.10020607 192.89089141 1.09517589 223.00244141 29.57568359 C241.49163175 49.07238505 245.94960018 71.47040663 245.32080078 97.52734375 C245.13839018 101.51519336 244.70281454 105.42996107 244.18994141 109.38818359 C244.72361328 109.71689453 245.25728516 110.04560547 245.80712891 110.38427734 C262.45254735 121.01085071 272.57442857 134.58984424 277.61181641 153.68505859 C284.77646366 187.1846255 275.52154536 227.42705918 257.68994141 256.38818359 C238.90782953 284.09811546 213.38819692 301.05788518 180.65332031 307.91992188 C168.78191896 310.1563616 156.89711474 311.2789496 144.82275391 311.52490234 C143.66396729 311.55438965 142.50518066 311.58387695 141.3112793 311.61425781 C138.9748849 311.67099676 136.63800982 311.7109316 134.30102539 311.73242188 C128.00151635 311.88833414 123.91456895 312.04767211 119.18994141 316.38818359 C112.10202923 324.5392687 112.14658186 339.27345061 110.55690002 349.70421791 C110.14927722 352.37566275 109.73487891 355.04598169 109.31872559 357.71611023 C108.13822405 365.29748328 106.96881895 372.88054687 105.80566406 380.46459961 C105.08971058 385.12968796 104.36541459 389.79342095 103.63612366 394.45644188 C103.36180109 396.22166394 103.09069782 397.98738962 102.82298279 399.75362587 C102.44853991 402.22334062 102.06352399 404.69120189 101.67626953 407.15893555 C101.57020889 407.87651031 101.46414825 408.59408508 101.35487366 409.33340454 C100.39998799 415.30006362 98.92851747 420.79678554 95.53372192 425.85682678 C92.06229173 428.12495652 88.69967527 427.9380345 84.68945312 427.88989258 C83.8337674 427.89529556 82.97808167 427.90069855 82.09646606 427.90626526 C79.270501 427.91876449 76.44555213 427.90225654 73.61962891 427.88427734 C71.65715481 427.88443228 69.6946804 427.88592029 67.73220825 427.88868713 C63.62146462 427.89007156 59.51106973 427.87750336 55.40039062 427.85473633 C50.12284251 427.82631422 44.84587231 427.82909858 39.56828117 427.84182644 C35.51745639 427.84876909 31.46676603 427.84101118 27.4159584 427.82856941 C25.46943807 427.82404377 23.52290336 427.82372778 21.57638168 427.82763481 C18.861165 427.83053415 16.14675549 427.81410318 13.43164062 427.79223633 C12.62225037 427.79673798 11.81286011 427.80123962 10.97894287 427.80587769 C8.74435425 427.77586365 8.74435425 427.77586365 5.18994141 427.38818359 C-0.19522298 419.31043701 4.12241075 406.30603782 5.68994141 397.20068359 C5.93164115 395.75746036 6.17253214 394.31410144 6.41259766 392.87060547 C6.99574811 389.37485421 7.5897586 385.88105596 8.18994141 382.38818359 C7.12585052 382.39928665 6.06175964 382.41038971 4.96542358 382.42182922 C-5.06902297 382.52324509 -15.10336537 382.59816817 -25.13820839 382.64724445 C-30.29710904 382.67332357 -35.45559552 382.70869114 -40.61425781 382.76538086 C-45.59392739 382.81976031 -50.57319893 382.84961681 -55.55314255 382.86256981 C-57.45176839 382.87179901 -59.35037277 382.88982181 -61.24882889 382.91683388 C-63.9111541 382.95320354 -66.5718408 382.95812571 -69.234375 382.95581055 C-70.01696686 382.97378693 -70.79955872 382.99176331 -71.60586548 383.01028442 C-75.64792042 382.97232341 -78.08949079 382.55838697 -81.28353882 379.97770691 C-85.36673912 375.7926843 -84.98715751 373.03858999 -84.93147767 367.40078211 C-84.7502039 362.90309423 -84.11946768 358.53760577 -83.3924408 354.09979248 C-83.23968219 353.12428381 -83.08692358 352.14877514 -82.92953593 351.14370561 C-82.41980096 347.90193074 -81.89802953 344.66221481 -81.3762207 341.42236328 C-81.00574493 339.08241627 -80.63601945 336.74235035 -80.26698303 334.4021759 C-79.36590301 328.70049373 -78.45702665 323.00009402 -77.54474216 317.30019477 C-76.46726076 310.56527496 -75.39968625 303.82879522 -74.33259041 297.09222344 C-72.40974787 284.95495602 -70.47937144 272.81889941 -68.54418945 260.68359375 C-66.70300426 249.13761768 -64.86485823 237.591166 -63.03149414 226.04394531 C-62.92036287 225.34401402 -62.8092316 224.64408272 -62.69473271 223.92294139 C-62.02362811 219.69598896 -61.35265187 215.46901616 -60.68172356 211.24203575 C-59.67995826 204.93074021 -58.67805903 198.61946594 -57.67593384 192.30822754 C-57.56625808 191.61748762 -57.45658233 190.9267477 -57.34358306 190.21507627 C-55.80281997 180.51208227 -54.25880102 170.809611 -52.71228065 161.10753304 C-51.73648434 154.98565434 -50.76118583 148.86369634 -49.78613281 142.74169922 C-49.62751249 141.74583654 -49.62751249 141.74583654 -49.46568772 140.72985542 C-46.54526035 122.39225543 -43.65568848 104.05008395 -40.80341756 85.70175314 C-40.26826421 82.2611815 -39.73193797 78.82079502 -39.19512653 75.38048172 C-39.02324509 74.27884084 -38.85136364 73.17719995 -38.67427367 72.04217601 C-38.33502751 69.86802619 -37.99573234 67.69388402 -37.65638572 65.51974988 C-36.69334605 59.34441785 -35.73859084 53.16787908 -34.79031324 46.99026394 C-34.21633579 43.26310601 -33.63488499 39.53714276 -33.05134654 35.81147099 C-32.78694181 34.11265721 -32.52577042 32.41333637 -32.2681725 30.71347713 C-31.91907316 28.41183425 -31.55859863 26.11224744 -31.19532776 23.81280518 C-30.99866799 22.53806965 -30.80200823 21.26333412 -30.59938908 19.94997025 C-29.14402517 13.38276444 -26.63258564 8.21071064 -21.81005859 3.38818359 C-15.00363959 -0.69533501 -7.72130271 -0.03499194 0 0 Z " fill="#243B80" transform="translate(364.81005859375,104.61181640625)"/>
<path d="M0 0 C15.54145637 7.10354445 25.8685363 20.10330362 31.93359375 35.81640625 C43.05477353 69.01699791 34.02424369 108.45938599 18.98486328 139.07861328 C5.1771254 166.01636666 -18.71179819 185.20450689 -47.21191406 194.46508789 C-63.90170821 199.62646613 -80.93107865 201.78154808 -98.3671875 202.13671875 C-99.52597412 202.16620605 -100.68476074 202.19569336 -101.87866211 202.22607422 C-104.2150565 202.28281316 -106.55193158 202.32274801 -108.88891602 202.34423828 C-115.18842506 202.50015055 -119.27537246 202.65948852 -124 207 C-131.08791218 215.15108511 -131.04335954 229.88526701 -132.63304138 240.31603432 C-133.04066418 242.98747915 -133.4550625 245.6577981 -133.87121582 248.32792664 C-135.05171736 255.90929969 -136.22112246 263.49236327 -137.38427734 271.07641602 C-138.10023082 275.74150437 -138.82452681 280.40523736 -139.55381775 285.06825829 C-139.82814032 286.83348035 -140.09924359 288.59920603 -140.36695862 290.36544228 C-140.74140149 292.83515703 -141.12641742 295.3030183 -141.51367188 297.77075195 C-141.61973251 298.48832672 -141.72579315 299.20590149 -141.83506775 299.94522095 C-142.78995341 305.91188003 -144.26142394 311.40860194 -147.65621948 316.46864319 C-151.12764968 318.73677292 -154.49026614 318.54985091 -158.50048828 318.50170898 C-159.78401688 318.50981346 -159.78401688 318.50981346 -161.09347534 318.51808167 C-163.91944041 318.53058089 -166.74438928 318.51407294 -169.5703125 318.49609375 C-171.5327866 318.49624868 -173.495261 318.49773669 -175.45773315 318.50050354 C-179.56847678 318.50188797 -183.67887168 318.48931976 -187.78955078 318.46655273 C-193.06709889 318.43813062 -198.3440691 318.44091498 -203.62166023 318.45364285 C-207.67248501 318.46058549 -211.72317538 318.45282759 -215.773983 318.44038582 C-217.72050334 318.43586017 -219.66703805 318.43554418 -221.61355972 318.43945122 C-224.3287764 318.44235055 -227.04318592 318.42591958 -229.75830078 318.40405273 C-230.97238617 318.41080521 -230.97238617 318.41080521 -232.21099854 318.41769409 C-234.44558716 318.38768005 -234.44558716 318.38768005 -238 318 C-242.83308474 310.75037289 -239.52223664 299.54840917 -238.125 291.4375 C-237.95097656 290.37853516 -237.77695312 289.31957031 -237.59765625 288.22851562 C-236.83588517 283.64942505 -236.02106203 279.09221909 -235.08308411 274.54603577 C-233.91682356 268.7239708 -232.98495046 262.87482707 -232.07641602 257.0078125 C-231.895625 255.85198669 -231.71483398 254.69616089 -231.52856445 253.50531006 C-231.1386918 251.0119541 -230.74970272 248.51845986 -230.36151314 246.02484131 C-229.74569455 242.07229434 -229.12655288 238.12027657 -228.50608826 234.16845703 C-226.74332926 222.93802226 -224.98347038 211.70714307 -223.23413086 200.47460938 C-222.26545566 194.25496602 -221.2917641 188.03612944 -220.31255096 181.81813622 C-219.79617231 178.53771746 -219.28314566 175.25683046 -218.77478218 171.97515869 C-218.20725567 168.31313093 -217.63107302 164.65255971 -217.05297852 160.9921875 C-216.80737434 159.38654938 -216.80737434 159.38654938 -216.55680847 157.74847412 C-213.58430224 139.13152098 -213.58430224 139.13152098 -208 134 C-201.11071973 129.69132137 -195.45768444 129.4388761 -187.4453125 129.49609375 C-185.62373123 129.4819619 -185.62373123 129.4819619 -183.76535034 129.46754456 C-179.88506249 129.43898086 -176.00538403 129.43580804 -172.125 129.4375 C-121.95524898 129.38943854 -75.36458897 123.25836149 -38.47265625 86.48046875 C-18.62721417 65.5953579 -8.5780132 37.99012018 -2.52099609 10.32275391 C-1.74536644 6.86476866 -0.87532826 3.4339801 0 0 Z " fill="#179AD6" transform="translate(608,214)"/>
<path d="M0 0 C1.07031967 -0.0071553 2.14063934 -0.01431061 3.24339294 -0.02168274 C4.42344406 -0.02437164 5.60349518 -0.02706055 6.81930542 -0.02983093 C8.05876419 -0.03640213 9.29822296 -0.04297333 10.57524109 -0.04974365 C14.70200845 -0.06954248 18.82873667 -0.08117002 22.95553589 -0.09111023 C24.38328953 -0.09516028 25.81104298 -0.09927727 27.23879623 -0.10346031 C33.96749646 -0.12254432 40.6961857 -0.13675216 47.4249078 -0.14507228 C55.1374684 -0.15476938 62.84973619 -0.18087453 70.56219399 -0.22157317 C76.5506724 -0.25206178 82.53906873 -0.26657278 88.52762306 -0.26985329 C92.08876965 -0.27217273 95.64960493 -0.28071106 99.21066666 -0.30631447 C123.66860413 -0.47287334 152.31967294 -0.09449252 173.94772339 13.14717102 C175.01603277 16.35209916 174.90084157 17.32302759 174.19772339 20.51435852 C174.00525024 21.38947083 173.8127771 22.26458313 173.61447144 23.16621399 C173.39444458 24.10867981 173.17441772 25.05114563 172.94772339 26.02217102 C172.60704834 27.48807678 172.60704834 27.48807678 172.25949097 28.9835968 C168.36540792 45.19830327 163.1337706 60.58849149 154.94772339 75.14717102 C154.62159058 75.72934387 154.29545776 76.31151672 153.95944214 76.91133118 C136.51237583 107.59140645 108.7161487 127.09791853 75.18600464 136.52217102 C50.1108682 143.1177277 24.67676069 143.5942 -1.09671021 143.58296204 C-4.89728039 143.58652641 -8.69714499 143.61378088 -12.49758911 143.64326477 C-14.21632736 143.63099098 -14.21632736 143.63099098 -15.9697876 143.61846924 C-24.2924219 143.69604316 -29.73394898 144.9238947 -35.77276611 150.78973389 C-36.90112381 151.95666527 -36.90112381 151.95666527 -38.05227661 153.14717102 C-36.48532521 138.2038518 -34.14921567 123.39162116 -31.80618286 108.55342102 C-31.49557249 106.57886931 -31.18496336 104.6043174 -30.87448448 102.62974501 C-29.90246151 96.4491577 -28.92656151 90.26919081 -27.94851685 84.08955383 C-26.94427854 77.74375152 -25.94835861 71.39668028 -24.95615059 65.04898691 C-24.0978679 59.56062864 -23.23361902 54.0732309 -22.36482757 48.58652639 C-21.84861626 45.32578347 -21.3355066 42.06460674 -20.82705879 38.80264282 C-20.26041974 35.17214774 -19.68403168 31.54332626 -19.10525513 27.91474915 C-18.94151901 26.85172577 -18.7777829 25.78870239 -18.60908508 24.69346619 C-15.85362256 7.6324043 -15.85362256 7.6324043 -10.48977661 3.64717102 C-9.59065552 2.95107727 -9.59065552 2.95107727 -8.67337036 2.24092102 C-5.61191366 0.17535987 -3.66915833 0.01680566 0 0 Z " fill="#222D65" transform="translate(433.0522766113281,200.8528289794922)"/>
</svg>
